<?xml version="1.0" encoding="UTF-8"?>
<svg id="Layer_1" data-name="Layer 1" xmlns="http://www.w3.org/2000/svg" viewBox="0 0 184.7 184.68">
  <g id="ZO8HFu.tif">
    <g>
      <g>
        <g>
          <path d="M184.7,105.81v71.56c-1.29,3.64-3.66,6.02-7.31,7.31h-71.56c-3.78-1.37-6.76-4.12-7.31-8.27v-69.64c.6-4.38,4.2-7.92,8.64-8.29h69.27c4.15.56,6.9,3.55,8.27,7.33ZM178.56,104.64h-73.91s0,73.91,0,73.91h73.91s0-73.91,0-73.91Z"/>
          <path d="M154.56,122.47c1.27,1.39,1.1,4.19-.74,4.98-3.07,1.31-8.69-.57-13.46,1.55-12.55,5.59-9.49,24.81,4.17,26.4,3.1.36,12.66-1.71,10.75,4.29-.86,2.7-8.28,2.12-10.79,1.9-24.17-2.15-24.2-38.1.36-40.02,1.96-.15,8.53-.38,9.7.9Z"/>
        </g>
        <g>
          <path d="M78.89,184.68H7.33c-3.78-1.37-6.76-4.12-7.31-8.27v-69.27c.35-4.43,3.89-8.04,8.27-8.64h68.89c4.7.11,8.66,3.99,9.04,8.64v69.27c-.56,4.15-3.55,6.9-7.33,8.27ZM80.06,104.64H6.15s0,73.91,0,73.91h73.91s0-73.91,0-73.91Z"/>
          <path d="M62.22,160.71c-4.82,4.41-6.79-6.4-8.53-7.96-.36-.32-.66-.43-1.14-.4l-19.58.08c-1.16.4-3.27,7.27-4.67,8.42-2.6,2.13-6.26-.68-4.91-3.75l16.94-33.85c1.17-2.26,4.36-2.28,5.54,0l17.05,34.12c.46,1.07.13,2.58-.71,3.35ZM35.8,146.21h14.62l-7.5-14.24-7.12,14.24Z"/>
        </g>
      </g>
      <g>
        <path d="M56.86.1l70.32-.1c4.38.6,7.93,4.21,8.29,8.64v68.9c-.37,4.55-4.12,8.29-8.66,8.66H57.9c-4.55-.37-8.29-4.12-8.66-8.66V8.27c.57-4.05,3.64-7.28,7.61-8.18ZM129.31,6.14H55.4s0,73.91,0,73.91h73.91s0-73.91,0-73.91Z"/>
        <path d="M100.44,43.47c7.55,4.31,5.8,16.42-1.83,19.91-3.35,1.53-11.57,1.71-15.3,1.27-1.92-.23-3.32-1.68-3.28-3.65.83-11.66-1.04-24.71,0-36.2.19-2.14,1.1-3,3.28-3.26,8.26-.99,19.09-.42,21.58,9.22,1.25,4.84-.5,9.71-4.45,12.71ZM86.2,40.02h7.5c.17,0,2.29-1,2.63-1.22,3.7-2.4,3.49-7.77-.15-10.12-.3-.2-1.94-.98-2.1-.98h-7.89v12.31ZM86.2,58.48h7.89c.16,0,2.31-1,2.63-1.22,2.72-1.82,3.03-6.42.85-8.81-.53-.58-3.24-2.29-3.87-2.29h-7.5v12.31Z"/>
      </g>
    </g>
  </g>
</svg>