<?xml version="1.0" encoding="UTF-8"?>
<svg id="Layer_1" data-name="Layer 1" xmlns="http://www.w3.org/2000/svg" viewBox="0 0 174.65 174.73">
  <g id="_4N22ES.tif" data-name="4N22ES.tif">
    <g>
      <path d="M92.49,0l12.68,1.81c70.86,15.08,94.46,105.52,37.96,152.74C92.45,196.91,15.15,168.84,1.87,105.15L.06,92.46c.14-3.38-.19-6.86,0-10.24C2.56,38.58,38.62,2.5,82.26,0h10.23ZM160.34,87.35c0-40.31-32.67-72.99-72.96-72.99S14.41,47.04,14.41,87.35s32.67,72.99,72.96,72.99,72.96-32.68,72.96-72.99Z"/>
      <path d="M39.41,82.01c2.28-2.3,6.09-2.85,8.86-1.09l25.25,24.48,52.42-52.33c7.13-4.51,14.92,3.62,9.71,10.39l-57.81,57.83c-2.65,2.25-6.78,2.09-9.38-.19-8.37-9.9-21.12-19.03-29-28.99-2.4-3.03-2.97-7.17-.04-10.12Z"/>
    </g>
  </g>
</svg>