<?xml version="1.0" encoding="UTF-8"?>
<svg id="Layer_1" data-name="Layer 1" xmlns="http://www.w3.org/2000/svg" viewBox="0 0 173.14 173.25">
  <g id="_4bxBR8.tif" data-name="4bxBR8.tif">
    <g>
      <path d="M0,18.04C.74,9.01,6.51,1.77,15.54.02l83.29-.02,1.33.81,32.75,32.95.2,20.97c-.79,2.73-5.25,1.71-5.25-.28v-16.87h-26.46c-2.57,0-6.22-4.76-6.22-7.28V5.25H15.8c-4.92,0-11.09,8.39-10.49,13.3.32,46.37-.58,92.84.46,139.14,1.25,5.49,5.79,9.66,11.44,10.22,33.81-.33,67.76.6,101.49-.47,4.96-1.77,8.71-6.07,9.17-11.43.75-8.73-.6-18.5,0-27.34.51-3.27,5.12-3.01,5.31.33-1.26,16.1,6.14,40.03-15.86,44.18l-100.83.06c-9.51-1.25-15.73-8.78-16.5-18.13V18.04ZM123.95,32.24l-23.44-23.08v21.13c0,.25,1.44,1.95,1.6,1.95h21.84Z"/>
      <path d="M145.74,48c11.43-11,29.63-1.32,27.18,14.22-.59,3.73-2.72,6.38-4.94,9.26-15,19.39-32.14,37.77-47.4,57.01-7.56,2.52-15.68,5.93-23.35,7.9-2.62.67-4.12.92-4.76-2.33l3.63-26.14,49.64-59.93ZM155.47,48.67c-3.4.46-6.32,2.92-8.08,5.76l16.46,13.29c8.37-7.04,2.54-20.52-8.38-19.05ZM143.93,58.33l-42.05,50.75,6.35,5.26,42.05-50.75-6.35-5.26ZM154.22,66.88l-42.11,50.85,6.34,5.25,42.11-50.85-6.34-5.25ZM113.29,125.65l-13.14-11.01-1.78,15.62,14.91-4.62Z"/>
      <path d="M16.95,39.08c7.94.41,16.97-.83,24.79-.1,1.99.19,3.46.8,3.72,3.02-.58,8.01.74,17,0,24.89-.14,1.48-.67,2.84-2.31,3.02-8.36-.61-17.72.75-25.96,0-2.01-.18-2.48-.62-2.66-2.66-.74-8.12.59-17.35,0-25.6.08-1.51.97-2.31,2.4-2.57ZM40.13,44.32h-20.24v20.6h20.24v-20.6Z"/>
      <path d="M55.51,94.29c-1.69-1.43-.69-4.31,1.48-4.53h37.67c3.85.46,2.67,5.69-1.08,5.34-11.38-.71-23.93.97-35.17.02-.81-.07-2.3-.32-2.9-.83Z"/>
      <path d="M55.51,50.61c-1.7-1.37-.67-4.36,1.48-4.53h37.67c3.14.14,3.16,4.85,0,5-12.07-.78-25.39,1.02-37.31,0-.66-.06-1.29-.03-1.84-.48Z"/>
      <path d="M55.51,150.05c-2.38-1.93-.21-4.56,2.56-4.87,7.04-.78,15.5.56,22.7.03,3.44.48,4.28,4.32.76,5.31-7.83-.54-16.45.65-24.18,0-.66-.06-1.29-.03-1.84-.48Z"/>
      <path d="M57.44,57.9c3.76-.63,19.46-.6,23.32-.05,3.24.46,4.27,3.88,1.09,5.29h-25.2c-3.09-1.36-2.56-4.68.79-5.23Z"/>
      <path d="M56.36,133.54l25.49-.06c3.19,1.41,2.14,4.83-1.09,5.29-7.2-.53-15.65.82-22.7.03-3.53-.39-4.84-3.14-1.7-5.26Z"/>
      <path d="M55.51,106.36c-1.58-1.28-.9-4.65,1.49-4.52l24.86.02c2.68.84,2.46,4.62-.33,4.98-7.83-.54-16.45.65-24.18,0-.66-.06-1.29-.03-1.84-.48Z"/>
      <path d="M17.32,126.45c5.02-.74,19.17-.6,24.42-.11,1.99.19,3.46.8,3.72,3.02-.57,8.01.74,17,0,24.89-.22,2.44-1.39,3.15-3.73,3.37-6,.56-17.02.44-23.11,0-2.46-.18-3.84-.22-4.09-3.02-.73-8.14.58-17.34,0-25.6.21-1.85,1.04-2.31,2.77-2.56ZM19.89,131.69v20.6h20.24v-20.6h-20.24Z"/>
      <path d="M17.32,82.77c5.02-.74,19.17-.6,24.42-.11,1.99.19,3.46.8,3.72,3.02-.58,8.01.74,17,0,24.89-.14,1.48-.67,2.84-2.31,3.02-8.36-.61-17.72.75-25.96,0-2.01-.18-2.48-.62-2.66-2.66-.74-8.12.59-17.35,0-25.6.21-1.85,1.04-2.31,2.77-2.56ZM40.13,88h-20.24v20.6h20.24v-20.6Z"/>
    </g>
  </g>
</svg>