<?xml version="1.0" encoding="UTF-8"?>
<svg id="Layer_1" data-name="Layer 1" xmlns="http://www.w3.org/2000/svg" viewBox="0 0 144.41 169.09">
  <path d="M134.71,23.83c-20.04-6-40.08-12-60.13-18.06-1.65-.46-3.1-.46-4.75,0-20.04,6.07-40.08,12.07-60.13,18.06-3.16.99-4.29,2.44-4.29,5.74v66.65c0,5.34,1.12,10.42,3.23,15.3,4.02,9.23,10.48,16.61,17.8,23.34,9.63,8.77,20.37,15.95,31.78,22.22,4.22,2.31,8.5,4.42,12.72,6.59h2.51s.07-.2.2-.2c11.14-5.14,21.76-11.27,31.71-18.46,9.43-6.79,18.13-14.31,24.92-23.8,5.34-7.45,8.7-15.63,8.7-24.99V29.57c0-3.3-1.12-4.75-4.29-5.74Z" fill="none" stroke="#000" stroke-miterlimit="10" stroke-width="10.84"/>
  <g>
    <path d="M78.24,55.93c0,1.71-.59,3.16-1.78,4.35-1.19,1.19-2.64,1.78-4.35,1.78s-3.03-.59-4.15-1.78c-1.19-1.19-1.78-2.64-1.78-4.35s.59-3.1,1.78-4.29c1.12-1.19,2.51-1.78,4.15-1.78s3.16.59,4.35,1.78c1.19,1.19,1.78,2.64,1.78,4.29Z" stroke="#000" stroke-miterlimit="10" stroke-width="4.06"/>
    <polygon points="77.32 119.22 67.69 119.22 68.74 69.91 76.26 69.91 77.32 119.22" stroke="#000" stroke-miterlimit="10" stroke-width="4.06"/>
  </g>
</svg>